<svg width="17" height="18" viewBox="0 0 17 18" fill="none" xmlns="http://www.w3.org/2000/svg">
<path fill-rule="evenodd" clip-rule="evenodd" d="M5.31648 9.83366V11.5003H2.00065V15.667H6.16732V14.0003H7.83398V16.5003C7.83398 16.9282 7.5128 17.28 7.09795 17.3281L7.00065 17.3337H1.16732C0.739401 17.3337 0.387649 17.0125 0.339582 16.5976L0.333984 16.5003V10.667C0.333984 10.2391 0.655171 9.88732 1.07002 9.83926L1.16732 9.83366H5.31648ZM13.6825 2.58422L16.7501 5.65179C17.0842 5.98588 17.0842 6.52754 16.7501 6.86163L10.6953 12.9164C10.5349 13.0769 10.3173 13.167 10.0904 13.167H7.0228C6.55033 13.167 6.16732 12.784 6.16732 12.3115V9.24394C6.16732 9.01706 6.25745 8.79946 6.41788 8.63903L12.4727 2.58422C12.8068 2.25014 13.3484 2.25014 13.6825 2.58422ZM13.0776 4.39897L7.87828 9.59829V11.456H9.73602L14.9353 6.25671L13.0776 4.39897ZM7.00065 0.666992C7.42857 0.666992 7.78032 0.988178 7.82839 1.40303L7.83398 1.50033V5.66699L5.33398 8.16699C4.87398 8.16699 4.50065 7.79366 4.50065 7.33366C4.50065 6.87366 4.87398 6.50033 5.33398 6.50033H6.16732V4.83366H5.33398C4.87398 4.83366 4.50065 4.46033 4.50065 4.00033C4.50065 3.54033 4.87398 3.16699 5.33398 3.16699H6.16732V2.33366H2.00065V8.16699H0.333984V1.50033C0.333984 1.07241 0.655171 0.720657 1.07002 0.67259L1.16732 0.666992H7.00065Z" fill="#6B7280"/>
</svg>
