<svg width="16" height="18" viewBox="0 0 16 18" fill="none" xmlns="http://www.w3.org/2000/svg">
<path d="M10.5 0.25H5.5V1.91667H10.5V0.25ZM7.16667 11.0833H8.83333V6.08333H7.16667V11.0833ZM13.8583 5.575L15.0417 4.39167C14.6833 3.96667 14.2917 3.56667 13.8667 3.21667L12.6833 4.4C11.3917 3.36667 9.76667 2.75 8 2.75C3.85833 2.75 0.5 6.10833 0.5 10.25C0.5 14.3917 3.85 17.75 8 17.75C12.15 17.75 15.5 14.3917 15.5 10.25C15.5 8.48333 14.8833 6.85833 13.8583 5.575ZM8 16.0833C4.775 16.0833 2.16667 13.475 2.16667 10.25C2.16667 7.025 4.775 4.41667 8 4.41667C11.225 4.41667 13.8333 7.025 13.8333 10.25C13.8333 13.475 11.225 16.0833 8 16.0833Z" fill="#6A737B"/>
</svg>
