<svg width="17" height="14" viewBox="0 0 17 14" fill="none" xmlns="http://www.w3.org/2000/svg">
<path fill-rule="evenodd" clip-rule="evenodd" d="M8.66537 0.333008C11.4563 0.333008 13.8801 0.733547 15.9369 1.53463C16.5771 1.78397 16.9987 2.40061 16.9987 3.08765V10.9117C16.9987 11.5987 16.5771 12.2154 15.9369 12.4647C13.8801 13.2658 11.4563 13.6663 8.66537 13.6663C5.87444 13.6663 3.45059 13.2658 1.39382 12.4647C0.753622 12.2154 0.332031 11.5987 0.332031 10.9117V3.08765C0.332031 2.40061 0.753623 1.78397 1.39382 1.53463C3.45059 0.733547 5.87444 0.333008 8.66537 0.333008ZM8.66537 1.99967C6.23278 1.99967 4.12893 2.32221 2.35013 2.95662L1.9987 3.08766V10.9117L2.35013 11.0427C4.12894 11.6771 6.23278 11.9997 8.66537 11.9997C11.0979 11.9997 13.2018 11.6771 14.9806 11.0427L15.332 10.9117V3.08765C13.4808 2.36665 11.2601 1.99967 8.66537 1.99967ZM6.79036 3.7448C6.90137 3.7448 7.01037 3.77436 7.10616 3.83045L11.5978 6.46029C11.8956 6.6347 11.9957 7.01756 11.8213 7.31544C11.7672 7.40789 11.6902 7.48487 11.5978 7.539L7.10616 10.1688C6.80828 10.3432 6.42542 10.2432 6.25101 9.94528C6.19493 9.84949 6.16536 9.74049 6.16536 9.62949V4.3698C6.16536 4.02462 6.44519 3.7448 6.79036 3.7448ZM7.83203 6.18634V7.81217L9.22037 6.99967L7.83203 6.18634Z" fill="#6B7280"/>
</svg>
